<?xml version="1.0" standalone="no"?>
<!DOCTYPE svg PUBLIC "-//W3C//DTD SVG 20010904//EN"
 "http://www.w3.org/TR/2001/REC-SVG-20010904/DTD/svg10.dtd">
<svg version="1.0" xmlns="http://www.w3.org/2000/svg"
 width="200.000000pt" height="200.000000pt" viewBox="0 0 200.000000 200.000000"
 preserveAspectRatio="xMidYMid meet">
<metadata>
Created by potrace 1.14, written by Peter Selinger 2001-2017
</metadata>
<g transform="translate(0.000000,200.000000) scale(0.100000,-0.100000)"
fill="#000000" stroke="none">
<path d="M1090 1849 c-84 -35 -119 -143 -72 -224 28 -46 87 -77 143 -72 187
15 189 290 2 303 -26 2 -59 -1 -73 -7z"/>
<path d="M1050 1504 c0 -3 82 -87 183 -187 100 -100 191 -195 201 -212 21 -33
24 -102 6 -149 -12 -33 -80 -100 -123 -122 -51 -27 -118 -29 -165 -5 -38 20
-133 104 -261 233 l-56 56 -92 -95 -91 -94 116 -114 c178 -173 244 -234 251
-233 3 1 24 -7 46 -19 86 -45 204 -61 307 -43 69 13 160 52 189 81 11 11 19
16 19 12 0 -9 68 63 102 109 15 20 39 71 53 113 58 171 14 347 -120 476 -36
35 -97 94 -135 132 l-68 67 -181 0 c-100 0 -181 -3 -181 -6z"/>
<path d="M675 1463 c-183 -29 -301 -106 -375 -244 -97 -182 -64 -413 79 -548
20 -19 82 -79 138 -133 l102 -100 176 0 c96 -1 178 1 180 4 5 4 -360 372 -385
388 -8 5 -12 10 -8 10 4 0 -1 15 -12 33 -89 146 126 353 285 274 22 -11 102
-82 177 -158 l137 -138 92 89 c83 81 90 91 78 107 -44 57 -293 300 -338 330
-92 62 -238 100 -326 86z"/>
<path d="M728 393 c-46 -23 -81 -78 -84 -131 -4 -98 70 -169 169 -159 193 18
176 299 -18 303 -22 0 -52 -6 -67 -13z"/>
</g>
</svg>
